<svg xmlns="http://www.w3.org/2000/svg" viewBox="0 0 512 512">
  <rect width="512" height="512" rx="110" fill="#ffffff"/>
  <g transform="translate(72 116)">
    <rect width="368" height="280" rx="28" fill="#ffffff"/>
    <rect width="368" height="20" y="0" fill="#cc0001"/>
    <rect width="368" height="20" y="40" fill="#cc0001"/>
    <rect width="368" height="20" y="80" fill="#cc0001"/>
    <rect width="368" height="20" y="120" fill="#cc0001"/>
    <rect width="368" height="20" y="160" fill="#cc0001"/>
    <rect width="368" height="20" y="200" fill="#cc0001"/>
    <rect width="368" height="20" y="240" fill="#cc0001"/>
    <rect width="170" height="160" fill="#010066"/>
    <circle cx="76" cy="80" r="48" fill="#ffcc00"/>
    <circle cx="94" cy="80" r="43" fill="#010066"/>
    <polygon points="126,80 114,86 118,99 106,91 95,99 99,86 87,80 99,74 95,61 106,69 118,61 114,74" fill="#ffcc00"/>
  </g>
</svg>
